<?xml version="1.0" encoding="UTF-8" standalone="no"?>
<!-- Created with Inkscape (http://www.inkscape.org/) -->

<svg
   xmlns:dc="http://purl.org/dc/elements/1.1/"
   xmlns:cc="http://creativecommons.org/ns#"
   xmlns:rdf="http://www.w3.org/1999/02/22-rdf-syntax-ns#"
   xmlns:svg="http://www.w3.org/2000/svg"
   xmlns="http://www.w3.org/2000/svg"
   xmlns:sodipodi="http://sodipodi.sourceforge.net/DTD/sodipodi-0.dtd"
   xmlns:inkscape="http://www.inkscape.org/namespaces/inkscape"
   width="744.09448819"
   height="1052.3622047"
   id="svg2"
   version="1.1"
   inkscape:version="0.48.3.1 r9886"
   sodipodi:docname="diagram.svg">
  <defs
     id="defs4" />
  <sodipodi:namedview
     id="base"
     pagecolor="#ffffff"
     bordercolor="#666666"
     borderopacity="1.0"
     inkscape:pageopacity="0.0"
     inkscape:pageshadow="2"
     inkscape:zoom="181.01934"
     inkscape:cx="296.56703"
     inkscape:cy="343.95194"
     inkscape:document-units="px"
     inkscape:current-layer="layer1"
     showgrid="false"
     inkscape:window-width="2495"
     inkscape:window-height="1576"
     inkscape:window-x="1089"
     inkscape:window-y="24"
     inkscape:window-maximized="1"
     inkscape:object-paths="false"
     inkscape:snap-intersection-paths="false" />
  <metadata
     id="metadata7">
    <rdf:RDF>
      <cc:Work
         rdf:about="">
        <dc:format>image/svg+xml</dc:format>
        <dc:type
           rdf:resource="http://purl.org/dc/dcmitype/StillImage" />
        <dc:title></dc:title>
      </cc:Work>
    </rdf:RDF>
  </metadata>
  <g
     inkscape:label="Layer 1"
     inkscape:groupmode="layer"
     id="layer1">
    <path
       style="fill:#edce01;fill-opacity:0.54794520000000002;stroke:#edce01;stroke-width:0;stroke-miterlimit:4;stroke-opacity:0.54901963;stroke-dasharray:none;stroke-dashoffset:0"
       d="m 299.68512,712.80974 c -1.40726,-3.72288 -7.06069,-18.67053 -12.56317,-33.21701 -5.50249,-14.54647 -9.90617,-26.53572 -9.78598,-26.64278 0.35536,-0.31654 81.15116,28.74217 81.94183,29.47088 0.39781,0.36664 -2.31963,8.75613 -6.03875,18.64332 l -6.76203,17.97671 -22.11662,0.26888 -22.11661,0.26888 -2.55867,-6.76888 z"
       id="path3871"
       inkscape:connector-curvature="0" />
    <path
       style="fill:#edce01;fill-opacity:0.5479452;stroke:#000000;stroke-width:0;stroke-miterlimit:4;stroke-opacity:1;stroke-dasharray:none;stroke-dashoffset:0"
       d="m 350.35831,716.29086 c 0.73185,-1.7875 17.93224,-47.2375 38.22308,-101 l 36.89243,-97.75 47.87368,0 c 26.33052,0 47.72368,0.37827 47.54034,0.8406 -0.18333,0.46232 -34.30833,45.8851 -75.83333,100.93949 l -75.5,100.0989 -10.26342,0.0605 -10.26342,0.0605 1.33064,-3.25 z"
       id="path3869"
       inkscape:connector-curvature="0" />
    <path
       style="fill:#edce01;fill-opacity:0.54794521;stroke:#000000;stroke-width:0;stroke-miterlimit:4;stroke-opacity:1;stroke-dasharray:none;stroke-dashoffset:0"
       d="m 203.19273,618.79086 -76.08133,-100.75 47.65647,-0.25981 c 35.55456,-0.19383 47.84013,0.0373 48.37967,0.91035 0.508,0.82196 70.06079,184.30227 75.66315,199.59946 0.34689,0.94717 -1.96416,1.25 -9.53942,1.25 l -9.99721,0 -76.08133,-100.75 z"
       id="path3867"
       inkscape:connector-curvature="0" />
    <path
       style="fill:#edce01;fill-opacity:0.54794520999999996;stroke:#000000;stroke-width:0;stroke-miterlimit:4;stroke-opacity:0.36862745000000002;stroke-dasharray:0,0;stroke-dashoffset:0"
       d="M 286.83312,686.31221 C 277.067,660.32718 229.16191,534.09059 224.487,522.02148 l -1.31811,-3.40295 -0.43518,-0.14641 c -0.83797,-0.28193 -3.01992,-0.44742 -8.21336,-0.62294 -2.17036,-0.0734 -8.9426,-0.10865 -21.30159,-0.11103 -18.89998,-0.004 -66.0568,0.20939 -66.1074,0.29865 -0.016,0.0283 4.65824,6.25626 10.38726,13.83999 10.30413,13.63997 10.41342,13.78889 10.14052,13.81725 -0.18071,0.0188 -0.32922,-0.027 -0.43054,-0.13258 -0.0851,-0.0887 -4.28172,-5.63029 -9.32592,-12.31466 -5.04419,-6.68436 -9.78238,-12.95883 -10.52931,-13.94326 l -1.35805,-1.78986 48.77503,0 48.77504,0 32.5556,86.15654 c 17.90559,47.3861 32.57466,86.20626 32.59795,86.26703 0.0278,0.0726 -0.0442,0.1101 -0.21018,0.10937 -0.25148,-10e-4 -0.25831,-0.0165 -1.65564,-3.73441 z"
       id="path4083"
       inkscape:connector-curvature="0" />
    <path
       style="fill:none;stroke:#000000;stroke-width:1.20989537px;stroke-linecap:butt;stroke-linejoin:miter;stroke-opacity:1"
       d="m 280.60893,637.91659 -4.76374,12.99104 85.96476,30.84047 4.76374,-12.99104 z"
       id="path3847"
       inkscape:connector-curvature="0" />
    <path
       style="stroke-width:1.19999999999999996;stroke-miterlimit:4;stroke-dasharray:4.79999999999999982, 4.79999999999999982;stroke-dashoffset:0;opacity:1;fill:#000000;fill-opacity:0.36986300000000000;marker-start:none"
       d="m 317.89177,664.8136 -40.66274,-14.64145 1.99646,-5.06564 c 1.09806,-2.78611 2.10694,-5.17629 2.24196,-5.31153 0.17636,-0.17664 65.8436,23.12842 82.33179,29.21926 1.69884,0.62756 -1.7324,9.92688 -3.77297,10.22546 -0.80947,0.11845 -19.77,-6.3733 -42.1345,-14.4261 z"
       id="path3851"
       inkscape:connector-curvature="0" />
    <path
       style="fill:none;stroke:#000000;stroke-width:1.12286603px;stroke-linecap:butt;stroke-linejoin:miter;stroke-opacity:1"
       d="M 370.30445,720.41216 524.25697,516.54656"
       id="path3023"
       inkscape:connector-curvature="0" />
    <path
       inkscape:connector-curvature="0"
       id="path3025"
       d="M 325.35746,779.69742 369.8273,720.80998"
       style="fill:none;stroke:#000000;stroke-width:1.12300000000000000;stroke-linecap:butt;stroke-linejoin:miter;stroke-opacity:0.23529412;stroke-miterlimit:4;stroke-dasharray:none;stroke-dashoffset:0" />
    <path
       style="fill:none;stroke:#000000;stroke-width:1.1265949px;stroke-linecap:butt;stroke-linejoin:miter;stroke-opacity:1"
       d="M 278.88188,721.29629 124.41811,516.7537"
       id="path3027"
       inkscape:connector-curvature="0" />
    <path
       sodipodi:type="arc"
       style="fill:#000000;fill-opacity:0.36986299;stroke:#000000;stroke-width:1.60000002;stroke-miterlimit:4;stroke-opacity:1;stroke-dasharray:none;stroke-dashoffset:0"
       id="path3861"
       sodipodi:cx="325.5"
       sodipodi:cy="813.86218"
       sodipodi:rx="5.5"
       sodipodi:ry="5.5"
       d="m 331,813.86218 a 5.5,5.5 0 1 1 -11,0 5.5,5.5 0 1 1 11,0 z"
       transform="matrix(0.65986452,0,0,0.65986452,109.47666,244.38039)" />
    <path
       style="fill:#edce01;fill-opacity:0.54901962999999998;stroke:none;stroke-width:0.10000000000000001;stroke-miterlimit:4;stroke-opacity:0.54901962999999998;stroke-dasharray:none;stroke-dashoffset:0"
       d="m 285.29659,719.8369 0,-0.28907 2.70703,-2e-4 c 3.88549,-2.8e-4 5.68626,-0.0296 7.23828,-0.11788 2.30817,-0.13127 3.41009,-0.38506 3.57773,-0.82402 0.0629,-0.16472 0.10154,-0.0475 -0.9178,-2.78447 -1.51525,-4.06848 -5.77658,-15.40291 -9.0701,-24.12499 l -0.60772,-1.60937 0.28124,-0.004 c 0.15468,-0.002 0.28586,10e-4 0.29151,0.008 0.0103,0.0121 11.32612,29.95657 11.33992,30.00817 0.007,0.026 -0.35384,0.0273 -7.41639,0.0273 l -7.4237,0 0,-0.28906 z"
       id="path4079"
       inkscape:connector-curvature="0" />
    <path
       style="fill:#edce01;fill-opacity:0.54794521;stroke:#000000;stroke-width:0.0375;stroke-miterlimit:4;stroke-opacity:0.36862745;stroke-dasharray:0.15, 0.15;stroke-dashoffset:0"
       d="m 175.57799,583.21878 c -14.53958,-19.25352 -26.84752,-35.55195 -27.35097,-36.21875 l -0.91537,-1.21235 0.36849,9.1e-4 0.3685,9.2e-4 27.32812,36.19019 c 15.03047,19.90461 27.33282,36.20264 27.33854,36.21784 0.006,0.0152 -0.14981,0.0276 -0.34565,0.0276 l -0.35606,0 -26.4356,-35.0064 z"
       id="path4081"
       inkscape:connector-curvature="0" />
    <path
       style="fill:#edce01;fill-opacity:0.54901962999999998;stroke:#000000;stroke-width:0;stroke-miterlimit:4;stroke-opacity:0.36862745000000002;stroke-dasharray:0,0;stroke-dashoffset:0"
       d="m 278.44482,719.37057 c -0.31044,-0.40106 -17.56066,-23.24172 -38.33383,-50.75701 -20.77316,-27.51529 -37.82951,-50.09741 -37.90299,-50.18249 -0.12418,-0.14376 -0.10926,-0.15443 0.21155,-0.15123 l 0.34515,0.003 38.22796,50.64069 38.22796,50.64069 3.0273,0.002 3.0273,0.002 0,0.26517 0,0.26516 -3.13298,0 -3.13299,0 -0.56443,-0.7292 0,0 z"
       id="path4085"
       inkscape:connector-curvature="0" />
    <path
       style="fill:none;stroke:#000000;stroke-width:1.12300003;stroke-linecap:butt;stroke-linejoin:miter;stroke-miterlimit:4;stroke-opacity:0.23529412;stroke-dasharray:none;stroke-dashoffset:0"
       d="M 322.9523,779.44742 278.48246,720.55998"
       id="path4087"
       inkscape:connector-curvature="0" />
    <path
       style="fill:#edce01;fill-opacity:0.54901961;stroke:#000000;stroke-width:0.00121534;stroke-miterlimit:4;stroke-opacity:0.23529412;stroke-dasharray:none;stroke-dashoffset:0"
       d="m 279.394,662.73304 c -0.006,-0.0167 -0.98173,-2.59834 -2.16811,-5.73696 -1.18637,-3.13861 -2.15393,-5.70796 -2.15013,-5.70966 0.006,-0.003 19.72068,7.06594 19.72954,7.07377 0.002,10e-4 0.002,0.13443 0,0.29555 l -0.003,0.29296 -2.29258,-0.81099 c -9.53699,-3.37371 -15.09458,-5.27519 -15.17706,-5.19271 -0.0515,0.0515 0.70215,2.2151 2.20965,6.34366 0.48992,1.34171 1.20167,3.27852 1.26577,3.44438 l 0.0117,0.0304 -0.70741,0 -0.70741,0 -0.0111,-0.0304 0,0 z"
       id="path4089"
       inkscape:connector-curvature="0" />
    <path
       style="fill:#edce01;fill-opacity:0.54901960999999999;stroke:#000000;stroke-width:0;stroke-miterlimit:4;stroke-opacity:0.23529412000000000;stroke-dasharray:none;stroke-dashoffset:0"
       d="m 278.43978,662.62064 c -0.0494,-0.13442 -0.0542,-0.14266 -0.081,-0.14086 -0.0271,0.002 -0.032,-0.007 -0.0977,-0.1804 -0.038,-0.10026 -0.0694,-0.18545 -0.0697,-0.1893 -2.9e-4,-0.004 0.0101,-0.01 0.023,-0.0131 0.0132,-0.003 0.0213,-0.0125 0.0184,-0.0206 -0.003,-0.008 -0.0371,-0.0998 -0.076,-0.20413 -0.0681,-0.18233 -0.0719,-0.18946 -0.0985,-0.18451 -0.0265,0.005 -0.0303,-0.002 -0.0969,-0.18047 -0.0381,-0.10209 -0.0691,-0.18934 -0.0691,-0.1939 10e-5,-0.005 0.007,-0.008 0.0161,-0.008 0.009,0 0.0185,-0.004 0.0217,-0.009 0.003,-0.005 -0.0282,-0.0984 -0.0698,-0.20716 -0.0524,-0.13698 -0.0803,-0.19666 -0.0908,-0.19411 -0.008,0.002 -0.0196,0.005 -0.0251,0.006 -0.005,10e-4 -0.0421,-0.0823 -0.0813,-0.18503 -0.0703,-0.18405 -0.071,-0.18715 -0.0493,-0.2044 0.0217,-0.0173 0.0209,-0.0205 -0.0513,-0.21423 -0.071,-0.19056 -0.0742,-0.19654 -0.10134,-0.19133 -0.0271,0.005 -0.0304,-7.9e-4 -0.0987,-0.18361 -0.0698,-0.18666 -0.0704,-0.18917 -0.0479,-0.2041 0.0225,-0.0149 0.0218,-0.0177 -0.0521,-0.21078 -0.0698,-0.18222 -0.0768,-0.19554 -0.10189,-0.19382 -0.0251,0.002 -0.032,-0.0113 -0.0992,-0.18783 -0.0676,-0.17754 -0.0709,-0.19031 -0.0514,-0.19964 0.0313,-0.015 0.0372,0.007 -0.0858,-0.31409 -0.0363,-0.0948 -0.0416,-0.10258 -0.065,-0.0967 -0.0231,0.006 -0.0283,-10e-4 -0.0556,-0.0737 -0.0166,-0.044 -0.0492,-0.12958 -0.0725,-0.1901 -0.0419,-0.10911 -0.0422,-0.1177 -0.005,-0.13082 0.006,-0.002 -0.0233,-0.0937 -0.0646,-0.20375 -0.0709,-0.18909 -0.0766,-0.19997 -0.10288,-0.19815 -0.0261,0.002 -0.0318,-0.009 -0.0928,-0.16932 -0.0839,-0.22112 -0.0807,-0.20992 -0.0609,-0.20992 0.009,0 0.0198,-0.005 0.0236,-0.0113 0.004,-0.006 -0.0267,-0.10024 -0.068,-0.20892 -0.07,-0.18432 -0.0768,-0.19749 -0.10204,-0.19585 -0.0251,0.002 -0.032,-0.0112 -0.097,-0.18054 -0.0385,-0.10027 -0.07,-0.18603 -0.07,-0.19059 -3e-5,-0.005 0.007,-0.008 0.0159,-0.008 0.009,0 0.0187,-0.004 0.0221,-0.01 0.003,-0.005 -0.0277,-0.0987 -0.069,-0.20716 -0.0542,-0.14222 -0.0796,-0.19615 -0.0911,-0.1935 -0.009,0.002 -0.0202,0.005 -0.0254,0.006 -0.005,0.001 -0.0414,-0.0825 -0.0805,-0.18564 -0.0699,-0.18435 -0.0707,-0.18777 -0.049,-0.2044 0.0217,-0.0166 0.0208,-0.0202 -0.0521,-0.21338 -0.0702,-0.18614 -0.0756,-0.19631 -0.1016,-0.19335 -0.026,0.003 -0.0313,-0.007 -0.0967,-0.17919 -0.0381,-0.10026 -0.0669,-0.18851 -0.064,-0.19611 0.003,-0.008 0.0132,-0.0138 0.0229,-0.0138 0.0212,0 0.0247,0.0117 -0.0646,-0.22097 -0.065,-0.16933 -0.0719,-0.18218 -0.097,-0.18056 -0.0252,0.002 -0.032,-0.0114 -0.0999,-0.19015 -0.0728,-0.19168 -0.0729,-0.1919 -0.0477,-0.20061 0.0251,-0.009 0.0251,-0.009 -0.0498,-0.2076 -0.0709,-0.18807 -0.0765,-0.19877 -0.10286,-0.19695 -0.0264,0.002 -0.0319,-0.009 -0.0995,-0.18782 -0.067,-0.17772 -0.0703,-0.19039 -0.0508,-0.19973 0.0114,-0.005 0.0208,-0.0147 0.0208,-0.0205 0,-0.008 -0.0808,-0.22731 -0.13844,-0.37543 -0.005,-0.0135 -0.015,-0.0174 -0.0324,-0.013 -0.0279,0.007 -0.0255,0.0118 -0.11101,-0.21634 -0.0262,-0.0699 -0.0511,-0.13576 -0.0553,-0.14639 -0.005,-0.0134 -0.002,-0.0193 0.009,-0.0193 0.009,0 0.0204,-0.005 0.0244,-0.0118 0.004,-0.006 -0.0263,-0.10055 -0.0673,-0.20901 -0.0696,-0.18398 -0.0764,-0.19707 -0.10163,-0.19535 -0.025,0.002 -0.0318,-0.0105 -0.0909,-0.16485 -0.0837,-0.21839 -0.0826,-0.21447 -0.0624,-0.21447 0.009,0 0.0195,-0.005 0.023,-0.0102 0.003,-0.006 -0.0272,-0.10016 -0.0683,-0.21009 -0.0586,-0.15691 -0.0782,-0.19847 -0.0913,-0.19335 -0.009,0.004 -0.0207,0.007 -0.0257,0.008 -0.005,0.001 -0.0409,-0.0826 -0.0799,-0.18589 -0.0698,-0.18486 -0.0706,-0.18809 -0.0488,-0.20461 0.0218,-0.0165 0.0209,-0.0201 -0.0538,-0.21545 -0.0429,-0.11225 -0.0815,-0.19745 -0.0886,-0.19589 -0.007,0.002 -0.0183,0.004 -0.0251,0.006 -0.0103,0.002 -0.1515,-0.34069 -0.15286,-0.37116 -2.3e-4,-0.005 0.01,-0.012 0.0223,-0.0153 0.0125,-0.003 0.0208,-0.0115 0.0185,-0.0183 -0.002,-0.007 -0.0362,-0.0984 -0.0752,-0.20358 -0.0684,-0.18404 -0.072,-0.19102 -0.0986,-0.18599 -0.0265,0.005 -0.0303,-0.002 -0.0976,-0.18119 -0.0385,-0.10252 -0.0668,-0.1916 -0.0629,-0.19794 0.004,-0.006 0.0143,-0.0115 0.0231,-0.0115 0.009,0 0.0159,-0.001 0.0158,-0.003 -6e-5,-0.002 -0.034,-0.0923 -0.0753,-0.20163 -0.0713,-0.18837 -0.0767,-0.19878 -0.10332,-0.19701 -0.0266,0.002 -0.0319,-0.008 -0.0999,-0.19017 -0.0716,-0.19145 -0.0718,-0.19207 -0.0469,-0.20075 0.0249,-0.009 0.0246,-0.01 -0.0505,-0.20757 -0.0708,-0.18653 -0.0771,-0.19869 -0.10231,-0.19593 -0.0284,0.003 -0.0344,-0.009 -0.14087,-0.29738 -0.0309,-0.0835 -0.031,-0.0846 -0.008,-0.0905 0.0288,-0.008 0.0279,-0.0112 -0.0583,-0.23756 -0.0627,-0.16469 -0.0692,-0.17676 -0.0945,-0.17495 -0.0253,0.002 -0.0319,-0.0106 -0.0984,-0.18516 -0.0392,-0.1029 -0.0712,-0.18866 -0.0712,-0.19059 0,-0.002 0.007,-0.003 0.0159,-0.003 0.009,0 0.019,-0.005 0.0228,-0.0111 0.005,-0.009 -0.13028,-0.39331 -0.14369,-0.40686 -0.002,-0.002 -0.0136,0.002 -0.0257,0.008 -0.0243,0.013 -0.0145,0.0333 -0.12232,-0.25311 -0.0431,-0.11451 -0.0434,-0.11624 -0.0217,-0.13312 0.0216,-0.0168 0.0206,-0.0206 -0.0535,-0.21665 -0.0722,-0.19117 -0.0765,-0.19914 -0.10051,-0.19025 -0.0171,0.006 -0.0267,0.005 -0.03,-0.004 -0.003,-0.007 -0.0351,-0.0929 -0.072,-0.1899 -0.0665,-0.17485 -0.0669,-0.17641 -0.0444,-0.19335 0.0224,-0.0169 0.022,-0.0188 -0.0517,-0.21363 -0.0701,-0.18543 -0.0759,-0.19637 -0.10145,-0.19335 -0.0255,0.003 -0.0313,-0.008 -0.0967,-0.17908 -0.0382,-0.10027 -0.0673,-0.18852 -0.0645,-0.19612 0.003,-0.008 0.0131,-0.0138 0.0231,-0.0138 0.01,0 0.0158,-0.006 0.0129,-0.0138 -0.003,-0.008 -0.0369,-0.0998 -0.0758,-0.205 -0.0684,-0.18517 -0.0715,-0.19101 -0.0986,-0.1858 -0.0271,0.005 -0.0304,-7.7e-4 -0.0977,-0.18103 -0.0383,-0.10253 -0.0664,-0.19169 -0.0625,-0.19814 0.004,-0.006 0.0144,-0.0117 0.0232,-0.0117 0.009,0 0.0159,-10e-4 0.0159,-0.003 0,-0.002 -0.0342,-0.0923 -0.0761,-0.20163 -0.0712,-0.18603 -0.0778,-0.19857 -0.10287,-0.1959 -0.025,0.003 -0.0315,-0.009 -0.0991,-0.18783 -0.0668,-0.17599 -0.0708,-0.19129 -0.0518,-0.1986 0.0322,-0.0124 0.0366,0.004 -0.0856,-0.31524 -0.0361,-0.0942 -0.0412,-0.10169 -0.0648,-0.0958 -0.0227,0.006 -0.0281,-2.6e-4 -0.0478,-0.0525 -0.0376,-0.0999 -0.10997,-0.28989 -0.11826,-0.31027 -0.006,-0.0137 -0.003,-0.0193 0.0102,-0.0193 0.01,0 0.0206,-0.006 0.0236,-0.0144 0.005,-0.0119 -0.13002,-0.38935 -0.14367,-0.40301 -0.002,-0.002 -0.014,9.6e-4 -0.026,0.007 -0.0202,0.0108 -0.0268,-0.002 -0.0937,-0.17864 -0.0714,-0.18886 -0.0718,-0.19041 -0.0494,-0.20811 0.0223,-0.0177 0.0219,-0.0193 -0.0525,-0.21544 -0.0412,-0.10869 -0.0763,-0.19927 -0.078,-0.20128 -0.002,-0.002 -0.013,0.002 -0.0251,0.008 -0.0203,0.0109 -0.0247,0.005 -0.0524,-0.0681 -0.0166,-0.044 -0.0492,-0.12914 -0.0725,-0.1892 -0.0422,-0.10914 -0.0444,-0.12834 -0.0145,-0.12834 0.009,0 0.016,-0.004 0.0161,-0.008 9e-5,-0.005 -0.0329,-0.0968 -0.0734,-0.20498 -0.07,-0.18695 -0.075,-0.19652 -0.10115,-0.19335 -0.0261,0.003 -0.0312,-0.006 -0.0977,-0.1829 -0.0386,-0.10244 -0.0675,-0.19069 -0.0641,-0.19611 0.003,-0.005 0.0138,-0.01 0.0232,-0.01 0.009,0 0.0149,-0.006 0.0123,-0.0138 -0.003,-0.008 -0.0367,-0.0998 -0.0758,-0.20483 -0.0673,-0.18113 -0.0724,-0.19085 -0.0984,-0.18782 -0.026,0.003 -0.0313,-0.007 -0.0967,-0.17911 -0.0381,-0.10027 -0.0669,-0.18852 -0.064,-0.19611 0.003,-0.008 0.0132,-0.0138 0.0229,-0.0138 0.0211,0 0.0248,0.0126 -0.0648,-0.22098 -0.0652,-0.16969 -0.0718,-0.18211 -0.0967,-0.17959 -0.0249,0.003 -0.0315,-0.01 -0.0994,-0.18911 l -0.0727,-0.1918 0.025,-0.01 c 0.025,-0.01 0.025,-0.01 -0.0501,-0.20865 -0.0712,-0.18851 -0.0766,-0.19872 -0.10272,-0.19593 -0.0261,0.003 -0.0314,-0.007 -0.0994,-0.18782 -0.0663,-0.1762 -0.0702,-0.19138 -0.0512,-0.1987 0.0113,-0.004 0.0206,-0.013 0.0206,-0.0192 0,-0.006 -0.0249,-0.0775 -0.0552,-0.15861 -0.0304,-0.0811 -0.0552,-0.15083 -0.0552,-0.15501 0,-0.004 0.17483,-0.006 0.38852,-0.005 l 0.38852,0.003 4.80949,12.72793 c 2.64522,7.00035 4.82196,12.76148 4.8372,12.8025 l 0.0277,0.0746 -0.39043,0 -0.39043,0 -0.0525,-0.14278 z"
       id="path4091"
       inkscape:connector-curvature="0" />
    <path
       style="fill:#edce01;fill-opacity:0.54901961;stroke:#000000;stroke-width:0;stroke-miterlimit:4;stroke-opacity:0.23529412;stroke-dasharray:none;stroke-dashoffset:0"
       d="m 294.27126,704.50813 c -0.0487,-0.12456 -0.10141,-0.25088 -0.11719,-0.28072 -0.0158,-0.0299 -0.0287,-0.0699 -0.0287,-0.089 0,-0.0191 -0.0196,-0.0791 -0.0436,-0.13324 -0.024,-0.0542 -0.0955,-0.2391 -0.15891,-0.41097 -0.15694,-0.42521 -0.2669,-0.70795 -0.30063,-0.77301 -0.0155,-0.0299 -0.0281,-0.0699 -0.0281,-0.089 0,-0.0191 -0.0196,-0.0791 -0.0436,-0.13324 -0.0378,-0.0853 -0.36717,-0.95491 -0.4634,-1.22347 -0.0185,-0.0516 -0.0511,-0.13594 -0.0725,-0.1875 -0.0214,-0.0516 -0.1257,-0.32578 -0.23174,-0.60938 -0.17607,-0.47088 -0.24551,-0.6536 -0.3147,-0.82812 -0.0136,-0.0344 -0.11131,-0.29453 -0.21707,-0.57813 -0.17511,-0.46958 -0.24358,-0.65005 -0.31418,-0.82812 -0.0136,-0.0344 -0.11131,-0.29453 -0.21707,-0.57813 -0.10575,-0.28359 -0.21413,-0.57187 -0.24084,-0.64062 -0.077,-0.19831 -0.0862,-0.22237 -0.28989,-0.76563 -0.1717,-0.45785 -0.22081,-0.5873 -0.31414,-0.82812 -0.0133,-0.0344 -0.13222,-0.35078 -0.26421,-0.70313 -0.132,-0.35234 -0.25301,-0.66504 -0.26892,-0.69488 -0.0159,-0.0299 -0.0289,-0.0699 -0.0289,-0.089 0,-0.0191 -0.0199,-0.0791 -0.0441,-0.13324 -0.0243,-0.0542 -0.13071,-0.3305 -0.23655,-0.6141 -0.10583,-0.28359 -0.2055,-0.54004 -0.22149,-0.56989 -0.016,-0.0298 -0.0291,-0.0699 -0.0291,-0.089 0,-0.0191 -0.0196,-0.0791 -0.0436,-0.13324 -0.024,-0.0542 -0.13044,-0.3305 -0.2366,-0.6141 -0.10617,-0.28359 -0.20609,-0.54004 -0.22205,-0.56989 -0.016,-0.0298 -0.029,-0.0699 -0.029,-0.089 0,-0.0191 -0.0225,-0.0861 -0.0501,-0.14886 -0.0627,-0.14289 -0.0688,-0.15836 -0.24082,-0.6141 -0.10655,-0.28222 -0.1563,-0.37729 -0.20107,-0.38426 -0.0444,-0.007 -0.0593,-0.0347 -0.0588,-0.10938 3.9e-4,-0.0585 -2.12619,-5.72431 -5.1149,-13.62757 -2.81357,-7.4401 -5.11558,-13.53971 -5.11558,-13.55468 0,-0.015 0.1793,-0.027 0.39844,-0.0267 l 0.39843,4.9e-4 7.85938,20.8022 c 4.32266,11.44122 7.89037,20.88396 7.92826,20.98388 l 0.0689,0.18168 -0.38138,0 -0.38139,0 -0.0885,-0.22646 0,-2e-4 z"
       id="path4093"
       inkscape:connector-curvature="0" />
    <path
       style="fill:#edce01;fill-opacity:0.54901961;stroke:#000000;stroke-width:0;stroke-miterlimit:4;stroke-opacity:0.23529412;stroke-dasharray:none;stroke-dashoffset:0"
       d=""
       id="path4095"
       inkscape:connector-curvature="0" />
    <path
       style="fill:#edce01;fill-opacity:0.54901961;stroke:#000000;stroke-width:0;stroke-miterlimit:4;stroke-opacity:0.23529412;stroke-dasharray:none;stroke-dashoffset:0"
       d=""
       id="path4097"
       inkscape:connector-curvature="0" />
    <path
       style="fill:#edce01;fill-opacity:0.54901961;stroke:#000000;stroke-width:0;stroke-miterlimit:4;stroke-opacity:0.23529412;stroke-dasharray:none;stroke-dashoffset:0"
       d="m 279.6649,666.02389 c -0.74387,-1.96858 -1.35248,-3.58093 -1.35245,-3.58301 3e-5,-0.002 0.005,0.004 0.01,0.0138 0.0126,0.0224 0.0193,0.0273 0.037,0.0273 0.0247,0 0.0297,0.009 0.088,0.16601 l 0.0436,0.11719 0.0855,0.002 c 0.047,10e-4 0.0697,0.002 0.0504,0.003 -0.0461,10e-4 -0.13383,0.0108 -0.14747,0.016 -0.006,0.002 -0.0107,0.006 -0.0107,0.008 0,0.009 0.22674,0.61282 0.99533,2.65086 0.61221,1.62339 1.567,4.15086 1.56969,4.15521 0.001,0.002 -0.002,0.003 -0.007,0.003 -0.008,0 -0.0949,-0.22725 -1.36156,-3.57924 z"
       id="path4099"
       inkscape:connector-curvature="0" />
    <path
       style="fill:#edce01;fill-opacity:0.54901961;stroke:#000000;stroke-width:0;stroke-miterlimit:4;stroke-opacity:0.23529412;stroke-dasharray:none;stroke-dashoffset:0"
       d="m 279.75617,667.69195 c -0.55123,-1.45859 -2.6843,-7.09728 -2.69974,-7.13667 -0.002,-0.006 -2e-5,-0.007 0.0202,-0.007 l 0.0229,6e-5 0.31592,0.8349 c 1.00309,2.65096 3.10791,8.21653 3.10791,8.21797 0,9.3e-4 -0.0101,0.002 -0.0225,0.002 l -0.0225,-5e-5 -0.72225,-1.91108 0,0 z"
       id="path4101"
       inkscape:connector-curvature="0" />
    <path
       style="fill:#edce01;fill-opacity:0.54901961;stroke:#000000;stroke-width:0;stroke-miterlimit:4;stroke-opacity:0.23529412;stroke-dasharray:none;stroke-dashoffset:0"
       d="m 264.62238,626.17718 c -2.29883,-6.08401 -4.17968,-11.07079 -4.17968,-11.08175 0,-0.011 0.1799,-0.0199 0.39979,-0.0199 l 0.3998,0 4.15225,10.99219 c 2.28374,6.0457 4.15846,11.00976 4.16605,11.03125 0.0105,0.0299 -0.0749,0.0391 -0.36226,0.0391 -0.32126,0 -0.37752,0.007 -0.38616,0.0505 -0.006,0.0278 -1.89096,-4.92732 -4.18979,-11.01132 z"
       id="path4103"
       inkscape:connector-curvature="0" />
    <path
       style="fill:#edce01;fill-opacity:0.54901961;stroke:#000000;stroke-width:0;stroke-miterlimit:4;stroke-opacity:0.23529412;stroke-dasharray:none;stroke-dashoffset:0"
       d="m 272.66527,648.94472 c -0.004,-0.01 -1.52625,-4.03066 -3.38361,-8.93554 -1.85736,-4.90489 -3.39729,-8.97159 -3.42207,-9.03711 -0.0427,-0.11289 -0.0442,-0.11914 -0.0283,-0.11898 0.0151,1.5e-4 0.34379,0.86329 3.36831,8.84552 1.84336,4.86494 3.38719,8.93948 3.43074,9.05452 0.0774,0.20433 0.0788,0.20917 0.0604,0.20917 -0.0124,0 -0.0211,-0.006 -0.0254,-0.0176 l 0,0 z"
       id="path4105"
       inkscape:connector-curvature="0" />
    <path
       style="fill:#edce01;fill-opacity:0.54901961;stroke:#000000;stroke-width:0;stroke-miterlimit:4;stroke-opacity:0.23529412;stroke-dasharray:none;stroke-dashoffset:0"
       d="m 267.75615,634.50328 c -0.62631,-1.6575 -1.19286,-3.1569 -1.25898,-3.33199 -0.0661,-0.1751 -0.11781,-0.31836 -0.11485,-0.31836 0.003,0 0.26326,0.67939 0.57845,1.50976 0.5524,1.45534 1.42895,3.75468 1.62538,4.26367 0.1673,0.43352 0.22086,0.56343 0.23074,0.55964 0.006,-0.002 0.0275,0.048 0.0607,0.14223 0.0488,0.13828 0.0507,0.14641 0.0375,0.15778 -0.008,0.007 -0.0153,0.0163 -0.0171,0.0215 -0.002,0.005 -0.51561,-1.34668 -1.14193,-3.00418 l 0,0 z"
       id="path4107"
       inkscape:connector-curvature="0" />
    <path
       style="fill:#edce01;fill-opacity:0.54901961;stroke:#000000;stroke-width:0;stroke-miterlimit:4;stroke-opacity:0.23529412;stroke-dasharray:none;stroke-dashoffset:0"
       d="m 268.87946,637.15093 c 0.002,-0.002 0.1415,-0.006 0.31023,-0.01 0.16873,-0.004 0.31875,-0.009 0.33338,-0.0127 0.0146,-0.003 0.0299,-0.0115 0.034,-0.018 0.005,-0.009 -0.31619,-0.86821 -1.17172,-3.13264 -0.64851,-1.71651 -1.17796,-3.12239 -1.17656,-3.12418 10e-4,-0.002 0.005,-0.001 0.007,0.002 0.003,0.003 0.53526,1.40862 1.18355,3.12435 0.64829,1.71572 1.1839,3.1325 1.19024,3.14839 l 0.0115,0.0289 -0.36274,-10e-4 c -0.1995,-6.6e-4 -0.36118,-0.003 -0.35929,-0.005 l 0,0 z"
       id="path4109"
       inkscape:connector-curvature="0" />
    <path
       style="fill:#edce01;fill-opacity:0.54901961;stroke:#000000;stroke-width:0;stroke-miterlimit:4;stroke-opacity:0.23529412;stroke-dasharray:none;stroke-dashoffset:0"
       d="m 268.96342,637.1522 c 0.008,-0.002 0.0181,-0.002 0.0234,2.9e-4 0.005,0.002 -9.3e-4,0.004 -0.0138,0.004 -0.0129,-1.6e-4 -0.0172,-0.002 -0.01,-0.004 z"
       id="path4111"
       inkscape:connector-curvature="0" />
    <path
       style="fill:#edce01;fill-opacity:0.54901961;stroke:#000000;stroke-width:0;stroke-miterlimit:4;stroke-opacity:0.23529412;stroke-dasharray:none;stroke-dashoffset:0"
       d="m 269.1793,638.26894 c -0.10108,-0.26489 -0.14815,-0.3947 -0.14445,-0.3984 0.003,-0.003 0.005,-4.9e-4 0.005,0.005 0,0.005 0.009,0.009 0.0194,0.009 0.0248,0 0.0427,0.0345 0.10459,0.20097 0.0691,0.18603 0.0682,0.18252 0.0513,0.19486 -0.0204,0.0149 -0.0262,0.0131 -0.0355,-0.0111 z"
       id="path4113"
       inkscape:connector-curvature="0" />
    <path
       style="fill:#edce01;fill-opacity:0.54901961;stroke:#000000;stroke-width:0;stroke-miterlimit:4;stroke-opacity:0.23529412;stroke-dasharray:none;stroke-dashoffset:0"
       d=""
       id="path4115"
       inkscape:connector-curvature="0" />
    <path
       style="fill:#edce02;fill-opacity:0.54901963;stroke:#000000;stroke-width:0;stroke-miterlimit:4;stroke-opacity:0.23529412000000000;stroke-dasharray:none;stroke-dashoffset:0"
       d="m 269.4164,638.89742 c -0.0441,-0.11729 -0.0801,-0.21541 -0.0801,-0.21804 0,-0.0148 0.0449,0.0104 0.0577,0.0323 0.014,0.024 0.1376,0.3415 0.1376,0.35349 0,0.003 -0.007,0.008 -0.0151,0.0102 -0.008,0.003 -0.0162,0.0117 -0.0176,0.02 -10e-4,0.008 -0.0385,-0.0807 -0.0825,-0.19803 z"
       id="path4117"
       inkscape:connector-curvature="0" />
    <path
       style="fill:none;stroke:#c3c50c;stroke-width:1.23707533;stroke-linecap:butt;stroke-linejoin:miter;stroke-miterlimit:4;stroke-opacity:1;stroke-dasharray:none;stroke-dashoffset:0"
       d="m 223.73821,517.07608 77.32115,204.62769"
       id="path4129"
       inkscape:connector-curvature="0" />
    <path
       inkscape:connector-curvature="0"
       id="path3841"
       d="M 425.41699,516.99518 348.09584,721.62287"
       style="fill:none;stroke:#c3c50c;stroke-width:1.23707533;stroke-linecap:butt;stroke-linejoin:miter;stroke-miterlimit:4;stroke-opacity:1;stroke-dasharray:none;stroke-dashoffset:0" />
    <path
       style="fill:none;stroke:#000000;stroke-width:1.00345922px;stroke-linecap:butt;stroke-linejoin:miter;stroke-opacity:1"
       d="m 125.25892,516.98133 398.36322,0"
       id="path3845"
       inkscape:connector-curvature="0" />
    <path
       style="fill:none;stroke:#000000;stroke-width:1.8;stroke-linecap:butt;stroke-linejoin:miter;stroke-opacity:1;stroke-miterlimit:4;stroke-dasharray:none"
       d="m 278.8021,721.03215 91.92388,0"
       id="path3843"
       inkscape:connector-curvature="0" />
    <path
       style="fill:#edce01;fill-opacity:0.54901963;stroke:#edce01;stroke-width:0;stroke-miterlimit:4;stroke-opacity:0.54901960999999999;stroke-dasharray:none;stroke-dashoffset:0"
       d="m 301.11992,719.97947 c -0.24828,-0.68209 -21.45935,-56.82065 -21.53167,-56.98708 -0.0967,-0.22264 -0.0929,-0.22399 0.55865,-0.19531 l 0.65606,0.0289 2.86428,7.66602 c 2.68459,7.18506 18.48108,49.03515 18.53438,49.10367 0.0458,0.0588 44.23217,-0.49722 44.2957,-0.55742 0.0787,-0.0746 6.56852,-17.33901 8.19045,-21.78844 2.76218,-7.57752 4.86312,-14.2407 4.6584,-14.77421 -0.0648,-0.1689 -1.43764,-0.7131 -7.24803,-2.87317 -7.16969,-2.66542 -33.99785,-12.38139 -46.21582,-16.73733 -10.47684,-3.7352 -11.05957,-3.95519 -11.05957,-4.17528 0,-0.18746 0.0394,-0.22203 0.20379,-0.17903 0.23875,0.0624 67.01611,24.00843 67.06681,24.04979 0.0188,0.0154 -3.1507,8.45736 -7.04345,18.75996 l -7.07772,18.732 -23.40388,0.0246 c -18.67267,0.0196 -23.41287,-10e-5 -23.44838,-0.0977 l 0,0 z"
       id="path4133"
       inkscape:connector-curvature="0" />
    <path
       style="fill:#edce01;fill-opacity:0.54901961;stroke:#edce01;stroke-width:0;stroke-miterlimit:4;stroke-opacity:0.54901961;stroke-dasharray:none;stroke-dashoffset:0"
       d=""
       id="path4143"
       inkscape:connector-curvature="0" />
    <path
       style="fill:#edce01;fill-opacity:0.54901961;stroke:#edce01;stroke-width:0;stroke-miterlimit:4;stroke-opacity:0.54901961;stroke-dasharray:none;stroke-dashoffset:0"
       d=""
       id="path4145"
       inkscape:connector-curvature="0" />
    <path
       style="fill:#edce01;fill-opacity:0.54901961;stroke:#edce01;stroke-width:0;stroke-miterlimit:4;stroke-opacity:0.54901961;stroke-dasharray:none;stroke-dashoffset:0"
       d="m 290.23888,687.93683 c -0.008,-0.0132 -4.52923,-12.01018 -5.16712,-13.71128 -0.0879,-0.2344 -0.1583,-0.42768 -0.15646,-0.42952 0.011,-0.011 0.0257,0.0193 0.0797,0.16378 0.38223,1.02254 5.27034,13.96057 5.28086,13.97759 0.002,0.003 -0.005,0.005 -0.0154,0.005 -0.0101,0 -0.0198,-0.002 -0.0216,-0.005 z"
       id="path4147"
       inkscape:connector-curvature="0" />
    <path
       style="fill:#edce01;fill-opacity:0.54901961;stroke:#edce01;stroke-width:0;stroke-miterlimit:4;stroke-opacity:0.54901961;stroke-dasharray:none;stroke-dashoffset:0"
       d="m 288.95452,687.90963 c -0.0194,-0.0519 -5.27876,-13.97074 -5.30768,-14.04678 l -0.0261,-0.0687 0.0254,0 0.0255,0 2.66936,7.06304 c 1.46814,3.88467 2.67064,7.06796 2.67221,7.07397 0.002,0.009 -0.001,0.0109 -0.0218,0.0109 -0.0242,0 -0.0249,-6e-4 -0.0369,-0.0325 l 0,0 z"
       id="path4149"
       inkscape:connector-curvature="0" />
    <path
       style="fill:#edce01;fill-opacity:0.54901961;stroke:#edce01;stroke-width:0;stroke-miterlimit:4;stroke-opacity:0.54901961;stroke-dasharray:none;stroke-dashoffset:0"
       d="m 286.67347,685.99716 c -0.29075,-0.77119 -2.23279,-5.9135 -2.72276,-7.20959 -0.38044,-1.00634 -0.6917,-1.83119 -0.6917,-1.83301 0,-0.002 0.01,-0.003 0.0212,-0.003 l 0.0212,0 0.008,0.0205 c 0.004,0.0113 0.28489,0.75439 0.62369,1.65137 0.89557,2.37107 2.07683,5.50484 2.77371,7.35839 l 0.009,0.0244 -0.0195,0 c -0.0166,0 -0.0199,-10e-4 -0.0228,-0.009 z"
       id="path4151"
       inkscape:connector-curvature="0" />
    <path
       style="fill:#edce01;fill-opacity:0.54901961;stroke:#edce01;stroke-width:0;stroke-miterlimit:4;stroke-opacity:0.54901961;stroke-dasharray:none;stroke-dashoffset:0"
       d="m 288.23535,690.0739 c -0.022,-0.004 -0.0352,-0.0385 -0.78315,-2.01964 -0.41843,-1.10835 -0.76288,-2.02182 -0.76546,-2.02994 -0.004,-0.0119 -10e-4,-0.0143 0.0128,-0.0122 0.0155,0.002 0.0422,0.0682 0.2392,0.59244 0.92824,2.46954 1.16485,3.06347 1.31254,3.29462 0.0445,0.0696 0.0988,0.12308 0.13723,0.13512 0.0296,0.009 0.0528,0.0262 0.0528,0.0385 -10e-6,0.006 -0.17753,0.007 -0.20597,10e-4 l 0,0 z"
       id="path4153"
       inkscape:connector-curvature="0" />
    <path
       style="fill:#edce01;fill-opacity:0.54901961;stroke:#edce01;stroke-width:0;stroke-miterlimit:4;stroke-opacity:0.54901961;stroke-dasharray:none;stroke-dashoffset:0"
       d="m 291.71352,691.84872 c -0.81003,-2.14737 -1.4721,-3.90525 -1.47128,-3.90642 8.3e-4,-0.001 0.01,8.9e-4 0.0196,0.005 0.0158,0.006 0.20729,0.50691 1.47746,3.8654 0.80264,2.12229 1.46637,3.87716 1.47494,3.89972 l 0.0156,0.041 -0.0218,0 -0.0218,0 -1.47278,-3.90429 z"
       id="path4155"
       inkscape:connector-curvature="0" />
    <path
       style="fill:#edce01;fill-opacity:0.54901961;stroke:#edce01;stroke-width:0;stroke-miterlimit:4;stroke-opacity:0.54901961;stroke-dasharray:none;stroke-dashoffset:0"
       d="m 291.90363,695.712 c -0.008,-0.0226 -0.6715,-1.77735 -1.47342,-3.89955 -0.80191,-2.12219 -1.45706,-3.85929 -1.45588,-3.86023 10e-4,-9.3e-4 0.0113,-0.004 0.0225,-0.007 l 0.0204,-0.005 0.32246,0.85338 c 0.17735,0.46936 0.83925,2.22095 1.47087,3.89244 0.63162,1.67148 1.15013,3.04521 1.15224,3.05273 0.003,0.0109 -0.001,0.0137 -0.0199,0.0137 -0.0215,0 -0.0252,-0.004 -0.0392,-0.041 l 0,0 z"
       id="path4157"
       inkscape:connector-curvature="0" />
    <path
       style="fill:#edce01;fill-opacity:0.54901961;stroke:#edce01;stroke-width:0;stroke-miterlimit:4;stroke-opacity:0.54901961;stroke-dasharray:none;stroke-dashoffset:0"
       d="m 349.45473,719.93583 c 0.004,-0.36665 -0.32546,-0.35316 10.11091,-0.41356 9.73129,-0.0563 9.95782,-0.0615 10.11992,-0.23081 0.16031,-0.16747 67.78951,-89.82334 86.889,-115.18856 l 9.40085,-12.48485 0.38904,0 c 0.30697,0 0.37414,0.0259 0.31836,0.12275 -0.0389,0.0675 -21.84736,28.96254 -48.4633,64.21118 l -48.39262,64.08843 -10.18676,0.003 c -8.09276,0.002 -10.18648,-0.0197 -10.1854,-0.1075 z"
       id="path4159"
       inkscape:connector-curvature="0" />
    <path
       style="fill:#edce01;fill-opacity:0.54901961;stroke:#edce01;stroke-width:0;stroke-miterlimit:4;stroke-opacity:0.54901961;stroke-dasharray:none;stroke-dashoffset:0"
       d="m 297.78829,707.94358 c -0.50263,-1.3296 -3.70467,-9.80835 -4.10943,-10.88143 l -0.12189,-0.32317 0.0223,-0.002 c 0.0123,-9.5e-4 0.0229,-9.5e-4 0.0237,0 7.5e-4,9.5e-4 1.08913,2.87794 2.41861,6.39331 1.32948,3.51537 2.41895,6.39594 2.42104,6.40125 0.003,0.008 2.7e-4,0.01 -0.0232,0.01 l -0.027,0 -0.60405,-1.5979 z"
       id="path4161"
       inkscape:connector-curvature="0" />
    <path
       style="fill:#edce01;fill-opacity:0.54901961;stroke:#edce01;stroke-width:0;stroke-miterlimit:4;stroke-opacity:0.54901961;stroke-dasharray:none;stroke-dashoffset:0"
       d="m 294.71131,703.1457 c -1.32899,-3.51762 -2.41753,-6.39893 -2.41896,-6.40291 -0.002,-0.005 0.004,-0.007 0.0238,-0.006 l 0.0264,0.002 2.41343,6.38882 c 1.32739,3.51385 2.41489,6.39441 2.41668,6.40125 0.003,0.0115 10e-4,0.0124 -0.0208,0.0124 l -0.0241,-6e-5 -2.41636,-6.39567 z"
       id="path4163"
       inkscape:connector-curvature="0" />
    <path
       style="fill:#edce01;fill-opacity:0.54901961;stroke:none"
       d="m 293.37269,696.25046 c -0.10076,-0.26724 -0.1832,-0.48698 -0.1832,-0.48832 0,-0.001 0.01,-0.003 0.0213,-0.004 l 0.0213,-0.002 0.17853,0.47239 c 0.0982,0.25982 0.18186,0.48047 0.18595,0.49035 l 0.007,0.018 -0.024,0 -0.024,0 -0.18321,-0.48589 z"
       id="path4165"
       inkscape:connector-curvature="0" />
    <path
       style="fill:#edce01;fill-opacity:0.54901961;stroke:none"
       d="m 292.28638,696.72669 c -0.014,-0.0352 -0.3639,-0.9615 -0.36575,-0.96813 -0.002,-0.006 0.003,-0.008 0.0215,-0.008 0.0131,0 0.0254,0.002 0.0274,0.006 0.004,0.006 0.36303,0.95407 0.36781,0.9709 0.002,0.008 -0.001,0.01 -0.0222,0.01 -0.0186,0 -0.0259,-0.002 -0.0288,-0.01 z"
       id="path4167"
       inkscape:connector-curvature="0" />
    <path
       style="fill:#edce01;fill-opacity:0.54901961;stroke:none"
       d="m 299.1184,714.80763 c -0.002,-0.005 -0.45054,-1.19173 -0.99653,-2.63646 l -0.99271,-2.62679 0.0231,-0.003 c 0.0206,-0.002 0.0237,-0.001 0.0296,0.0114 0.0136,0.0295 1.98498,5.25294 1.98498,5.25932 0,0.003 -0.01,0.005 -0.0223,0.005 -0.0161,0 -0.0233,-0.003 -0.0261,-0.01 l 0,0 z"
       id="path4169"
       inkscape:connector-curvature="0" />
    <path
       style="fill:#edce01;fill-opacity:0.54901961;stroke:none"
       d="m 300.37198,714.77448 c -0.0442,-0.11518 -0.79152,-2.08983 -1.34795,-3.56177 -0.34342,-0.90847 -0.62607,-1.65611 -0.62813,-1.66143 -0.003,-0.008 -1.9e-4,-0.01 0.0232,-0.01 l 0.027,0 0.50197,1.32721 c 1.14822,3.03587 1.48924,3.93891 1.48924,3.94356 0,0.003 -0.011,0.005 -0.0245,0.005 l -0.0245,0 -0.0164,-0.0428 z"
       id="path4171"
       inkscape:connector-curvature="0" />
  </g>
</svg>
