<?xml version="1.0" encoding="UTF-8" standalone="no"?>
<!-- Created with Inkscape (http://www.inkscape.org/) -->

<svg
   xmlns:dc="http://purl.org/dc/elements/1.1/"
   xmlns:cc="http://creativecommons.org/ns#"
   xmlns:rdf="http://www.w3.org/1999/02/22-rdf-syntax-ns#"
   xmlns:svg="http://www.w3.org/2000/svg"
   xmlns="http://www.w3.org/2000/svg"
   xmlns:sodipodi="http://sodipodi.sourceforge.net/DTD/sodipodi-0.dtd"
   xmlns:inkscape="http://www.inkscape.org/namespaces/inkscape"
   width="744.09448819"
   height="1052.3622047"
   id="svg4232"
   version="1.1"
   inkscape:version="0.48.3.1 r9886"
   sodipodi:docname="diagram2.svg">
  <defs
     id="defs4234" />
  <sodipodi:namedview
     id="base"
     pagecolor="#ffffff"
     bordercolor="#666666"
     borderopacity="1.0"
     inkscape:pageopacity="0.0"
     inkscape:pageshadow="2"
     inkscape:zoom="22.627417"
     inkscape:cx="336.96094"
     inkscape:cy="674.80336"
     inkscape:document-units="px"
     inkscape:current-layer="layer1"
     showgrid="false"
     inkscape:window-width="2495"
     inkscape:window-height="1576"
     inkscape:window-x="1089"
     inkscape:window-y="24"
     inkscape:window-maximized="1"
     showguides="true"
     inkscape:guide-bbox="true" />
  <metadata
     id="metadata4237">
    <rdf:RDF>
      <cc:Work
         rdf:about="">
        <dc:format>image/svg+xml</dc:format>
        <dc:type
           rdf:resource="http://purl.org/dc/dcmitype/StillImage" />
        <dc:title></dc:title>
      </cc:Work>
    </rdf:RDF>
  </metadata>
  <g
     inkscape:label="Layer 1"
     inkscape:groupmode="layer"
     id="layer1">
    <path
       style="fill:#edce02;fill-opacity:0.54901961;stroke:#000000;stroke-width:0;stroke-linecap:butt;stroke-linejoin:miter;stroke-miterlimit:4;stroke-opacity:1;stroke-dasharray:none"
       d="m 333.59448,378.48685 26.05514,68.95073 47.19803,0.004 14.03043,-37.45859 z"
       id="path5093"
       inkscape:connector-curvature="0"
       sodipodi:nodetypes="ccccc" />
    <path
       sodipodi:nodetypes="ccccc"
       inkscape:connector-curvature="0"
       id="path5091"
       d="m 581.55283,244.73875 -153.20735,202.77249 -21.04424,-0.0821 76.56562,-202.67606 z"
       style="fill:#edce02;fill-opacity:0.54901961;stroke:none" />
    <path
       style="fill:#edce02;fill-opacity:0.54901961;stroke:none"
       d="m 184.09766,244.76085 153.20735,202.77249 21.04424,-0.0821 -76.56562,-202.67606 z"
       id="path5089"
       inkscape:connector-curvature="0"
       sodipodi:nodetypes="ccccc" />
    <path
       style="fill:#000000;stroke:#000000;stroke-width:1.21743165999999992px;stroke-linecap:butt;stroke-linejoin:miter;stroke-opacity:1;fill-opacity:0.29223743"
       d="m 339.15756,365.00998 -4.77914,13.11099 86.24271,31.12524 4.77915,-13.11099 z"
       id="path3847"
       inkscape:connector-curvature="0" />
    <path
       style="fill:none;stroke:#000000;stroke-width:1.12831104px;stroke-linecap:butt;stroke-linejoin:miter;stroke-opacity:1"
       d="M 427.7355,448.87478 582.50963,244.11994"
       id="path3023"
       inkscape:connector-curvature="0" />
    <path
       style="font-size:medium;font-style:normal;font-variant:normal;font-weight:normal;font-stretch:normal;text-indent:0;text-align:start;text-decoration:none;line-height:normal;letter-spacing:normal;word-spacing:normal;text-transform:none;direction:ltr;block-progression:tb;writing-mode:lr-tb;text-anchor:start;baseline-shift:baseline;color:#000000;fill:#000000;fill-opacity:0.23529412;stroke:none;stroke-width:1.12300003;marker:none;visibility:visible;display:inline;overflow:visible;enable-background:accumulate;font-family:Sans;-inkscape-font-specification:Sans"
       d="m 427.92202,447.78125 -43.66745,57.8141 0.85924,0.67511 43.66744,-57.84479 -0.85923,-0.64442 z"
       id="path3025"
       inkscape:connector-curvature="0" />
    <path
       style="font-size:medium;font-style:normal;font-variant:normal;font-weight:normal;font-stretch:normal;text-indent:0;text-align:start;text-decoration:none;line-height:normal;letter-spacing:normal;word-spacing:normal;text-transform:none;direction:ltr;block-progression:tb;writing-mode:lr-tb;text-anchor:start;baseline-shift:baseline;color:#000000;fill:#000000;fill-opacity:1;stroke:none;stroke-width:1.1265949px;marker:none;visibility:visible;display:inline;overflow:visible;enable-background:accumulate;font-family:Sans;-inkscape-font-specification:Sans"
       d="m 183.62165,243.78068 -0.8759,0.65691 154.59667,204.77335 0.90718,-0.68821 -154.62795,-204.74205 z"
       id="path3027"
       inkscape:connector-curvature="0" />
    <path
       sodipodi:type="arc"
       style="fill:#000000;fill-opacity:0.36986299;stroke:#000000;stroke-width:1.60000002;stroke-miterlimit:4;stroke-opacity:1;stroke-dasharray:none;stroke-dashoffset:0"
       id="path3861"
       sodipodi:cx="325.5"
       sodipodi:cy="813.86218"
       sodipodi:rx="5.5"
       sodipodi:ry="5.5"
       d="m 331,813.86218 a 5.5,5.5 0 1 1 -11,0 5.5,5.5 0 1 1 11,0 z"
       transform="matrix(0.65986452,0,0,0.65986452,167.99719,-28.323864)" />
    <path
       style="font-size:medium;font-style:normal;font-variant:normal;font-weight:normal;font-stretch:normal;text-indent:0;text-align:start;text-decoration:none;line-height:normal;letter-spacing:normal;word-spacing:normal;text-transform:none;direction:ltr;block-progression:tb;writing-mode:lr-tb;text-anchor:start;baseline-shift:baseline;color:#000000;fill:#000000;fill-opacity:0.23529412;stroke:none;stroke-width:1.12300003;marker:none;visibility:visible;display:inline;overflow:visible;enable-background:accumulate;font-family:Sans;-inkscape-font-specification:Sans"
       d="m 337.41923,447.53125 -0.85673,0.64254 43.54001,57.67598 0.85672,-0.67314 -43.54,-57.64538 z"
       id="path4087"
       inkscape:connector-curvature="0" />
    <path
       style="fill:#edce01;fill-opacity:0.54901961;stroke:#000000;stroke-width:0;stroke-miterlimit:4;stroke-opacity:0.23529412;stroke-dasharray:none;stroke-dashoffset:0"
       d=""
       id="path4095"
       inkscape:connector-curvature="0" />
    <path
       style="fill:#edce01;fill-opacity:0.54901961;stroke:#000000;stroke-width:0;stroke-miterlimit:4;stroke-opacity:0.23529412;stroke-dasharray:none;stroke-dashoffset:0"
       d=""
       id="path4097"
       inkscape:connector-curvature="0" />
    <path
       style="fill:#edce01;fill-opacity:0.54901961;stroke:#000000;stroke-width:0;stroke-miterlimit:4;stroke-opacity:0.23529412;stroke-dasharray:none;stroke-dashoffset:0"
       d="m 338.27671,394.9877 c -0.55123,-1.45859 -2.6843,-7.09728 -2.69974,-7.13667 -0.002,-0.006 -2e-5,-0.007 0.0202,-0.007 l 0.0229,6e-5 0.31592,0.8349 c 1.00309,2.65096 3.10791,8.21653 3.10791,8.21797 0,9.3e-4 -0.0101,0.002 -0.0225,0.002 l -0.0225,-5e-5 -0.72225,-1.91108 0,0 z"
       id="path4101"
       inkscape:connector-curvature="0" />
    <path
       style="fill:#edce01;fill-opacity:0.54901961;stroke:#000000;stroke-width:0;stroke-miterlimit:4;stroke-opacity:0.23529412;stroke-dasharray:none;stroke-dashoffset:0"
       d="m 327.48396,364.44795 c 0.008,-0.002 0.0181,-0.002 0.0234,2.9e-4 0.005,0.002 -9.3e-4,0.004 -0.0138,0.004 -0.0129,-1.6e-4 -0.0172,-0.002 -0.01,-0.004 z"
       id="path4111"
       inkscape:connector-curvature="0" />
    <path
       style="fill:#edce01;fill-opacity:0.54901961;stroke:#000000;stroke-width:0;stroke-miterlimit:4;stroke-opacity:0.23529412;stroke-dasharray:none;stroke-dashoffset:0"
       d="m 327.69984,365.56469 c -0.10108,-0.26489 -0.14815,-0.3947 -0.14445,-0.3984 0.003,-0.003 0.005,-4.9e-4 0.005,0.005 0,0.005 0.009,0.009 0.0194,0.009 0.0248,0 0.0427,0.0345 0.10459,0.20097 0.0691,0.18603 0.0682,0.18252 0.0513,0.19486 -0.0204,0.0149 -0.0262,0.0131 -0.0355,-0.0111 z"
       id="path4113"
       inkscape:connector-curvature="0" />
    <path
       style="fill:#edce01;fill-opacity:0.54901961;stroke:#000000;stroke-width:0;stroke-miterlimit:4;stroke-opacity:0.23529412;stroke-dasharray:none;stroke-dashoffset:0"
       d=""
       id="path4115"
       inkscape:connector-curvature="0" />
    <path
       style="fill:#edce02;fill-opacity:0.54901961;stroke:#000000;stroke-width:0;stroke-miterlimit:4;stroke-opacity:0.23529412;stroke-dasharray:none;stroke-dashoffset:0"
       d="m 327.93694,366.19317 c -0.0441,-0.11729 -0.0801,-0.21541 -0.0801,-0.21804 0,-0.0148 0.0449,0.0104 0.0577,0.0323 0.014,0.024 0.1376,0.3415 0.1376,0.35349 0,0.003 -0.007,0.008 -0.0151,0.0102 -0.008,0.003 -0.0162,0.0117 -0.0176,0.02 -10e-4,0.008 -0.0385,-0.0807 -0.0825,-0.19803 z"
       id="path4117"
       inkscape:connector-curvature="0" />
    <path
       style="font-size:medium;font-style:normal;font-variant:normal;font-weight:normal;font-stretch:normal;text-indent:0;text-align:start;text-decoration:none;line-height:normal;letter-spacing:normal;word-spacing:normal;text-transform:none;direction:ltr;block-progression:tb;writing-mode:lr-tb;text-anchor:start;baseline-shift:baseline;color:#000000;fill:#c3c50c;fill-opacity:1;stroke:none;stroke-width:1.23707533;marker:none;visibility:visible;display:inline;overflow:visible;enable-background:accumulate;font-family:Sans;-inkscape-font-specification:Sans"
       d="m 482.91083,244.33036 -76.43315,204.09043 1.1431,0.43635 76.46404,-204.09043 -1.17399,-0.43635 z"
       id="path3841"
       inkscape:connector-curvature="0" />
    <path
       inkscape:connector-curvature="0"
       id="path5095"
       d="m 283.24542,244.33036 76.74565,203.96543 -1.4556,0.56135 -76.83969,-204.15673 z"
       style="font-size:medium;font-style:normal;font-variant:normal;font-weight:normal;font-stretch:normal;text-indent:0;text-align:start;text-decoration:none;line-height:normal;letter-spacing:normal;word-spacing:normal;text-transform:none;direction:ltr;block-progression:tb;writing-mode:lr-tb;text-anchor:start;baseline-shift:baseline;color:#000000;fill:#c3c50c;fill-opacity:1;stroke:none;stroke-width:1.23707533;marker:none;visibility:visible;display:inline;overflow:visible;enable-background:accumulate;font-family:Sans;-inkscape-font-specification:Sans"
       sodipodi:nodetypes="ccccc" />
    <path
       style="font-size:medium;font-style:normal;font-variant:normal;font-weight:normal;font-stretch:normal;text-indent:0;text-align:start;text-decoration:none;line-height:normal;letter-spacing:normal;word-spacing:normal;text-transform:none;direction:ltr;block-progression:tb;writing-mode:lr-tb;text-anchor:start;baseline-shift:baseline;color:#000000;fill:#000000;fill-opacity:1;stroke:none;stroke-width:1.79999995;marker:none;visibility:visible;display:inline;overflow:visible;enable-background:accumulate;font-family:Sans;-inkscape-font-specification:Sans"
       d="m 337.34375,447.44206 0,1.77213 90.84198,0 0,-1.77213 -90.84198,0 z"
       id="path3843"
       inkscape:connector-curvature="0" />
    <path
       style="fill:#edce01;fill-opacity:0.54901961;stroke:#edce01;stroke-width:0;stroke-miterlimit:4;stroke-opacity:0.54901961;stroke-dasharray:none;stroke-dashoffset:0"
       d=""
       id="path4143"
       inkscape:connector-curvature="0" />
    <path
       style="fill:#edce01;fill-opacity:0.54901961;stroke:#edce01;stroke-width:0;stroke-miterlimit:4;stroke-opacity:0.54901961;stroke-dasharray:none;stroke-dashoffset:0"
       d=""
       id="path4145"
       inkscape:connector-curvature="0" />
    <path
       style="fill:#edce01;fill-opacity:0.54901961;stroke:#edce01;stroke-width:0;stroke-miterlimit:4;stroke-opacity:0.54901961;stroke-dasharray:none;stroke-dashoffset:0"
       d="m 347.47506,415.20538 c -0.0194,-0.0519 -5.27876,-13.97074 -5.30768,-14.04678 l -0.0261,-0.0687 0.0254,0 0.0255,0 2.66936,7.06304 c 1.46814,3.88467 2.67064,7.06796 2.67221,7.07397 0.002,0.009 -10e-4,0.0109 -0.0218,0.0109 -0.0242,0 -0.0249,-6e-4 -0.0369,-0.0325 l 0,0 z"
       id="path4149"
       inkscape:connector-curvature="0" />
    <path
       style="fill:#edce01;fill-opacity:0.54901961;stroke:#edce01;stroke-width:0;stroke-miterlimit:4;stroke-opacity:0.54901961;stroke-dasharray:none;stroke-dashoffset:0"
       d="m 350.42417,423.00775 c -0.008,-0.0226 -0.6715,-1.77735 -1.47342,-3.89955 -0.80191,-2.12219 -1.45706,-3.85929 -1.45588,-3.86023 0.001,-9.3e-4 0.0113,-0.004 0.0225,-0.007 l 0.0204,-0.005 0.32246,0.85338 c 0.17735,0.46936 0.83925,2.22095 1.47087,3.89244 0.63162,1.67148 1.15013,3.04521 1.15224,3.05273 0.003,0.0109 -10e-4,0.0137 -0.0199,0.0137 -0.0215,0 -0.0252,-0.004 -0.0392,-0.041 l 0,0 z"
       id="path4157"
       inkscape:connector-curvature="0" />
    <path
       style="fill:#edce01;fill-opacity:0.54901961;stroke:none"
       d="m 357.63894,442.10338 c -0.002,-0.005 -0.45054,-1.19173 -0.99653,-2.63646 l -0.99271,-2.62679 0.0231,-0.003 c 0.0206,-0.002 0.0237,-10e-4 0.0296,0.0114 0.0136,0.0295 1.98498,5.25294 1.98498,5.25932 0,0.003 -0.01,0.005 -0.0223,0.005 -0.0161,0 -0.0233,-0.003 -0.0261,-0.01 l 0,0 z"
       id="path4169"
       inkscape:connector-curvature="0" />
    <path
       style="font-size:medium;font-style:normal;font-variant:normal;font-weight:normal;font-stretch:normal;text-indent:0;text-align:start;text-decoration:none;line-height:normal;letter-spacing:normal;word-spacing:normal;text-transform:none;direction:ltr;block-progression:tb;writing-mode:lr-tb;text-anchor:start;baseline-shift:baseline;color:#000000;fill:#000000;fill-opacity:1;stroke:none;stroke-width:1.00345922px;marker:none;visibility:visible;display:inline;overflow:visible;enable-background:accumulate;font-family:Sans;-inkscape-font-specification:Sans"
       d="m 183.60938,243.78116 0,1.00018 98.9153,0 299.53214,0 0,-1.00018 z"
       id="path3845"
       inkscape:connector-curvature="0" />
  </g>
</svg>
